<svg width="39" height="36" viewBox="0 0 39 36" fill="none" xmlns="http://www.w3.org/2000/svg">
<path d="M34.876 25.9148H10.9593V3.74813H34.876V25.9148ZM34.876 0.581467H10.9593C10.0532 0.581467 9.18413 0.915097 8.54338 1.50896C7.90263 2.10283 7.54266 2.90828 7.54266 3.74813V25.9148C7.54266 26.7547 7.90263 27.5601 8.54338 28.154C9.18413 28.7478 10.0532 29.0815 10.9593 29.0815H34.876C35.7821 29.0815 36.6512 28.7478 37.2919 28.154C37.9327 27.5601 38.2927 26.7547 38.2927 25.9148V3.74813C38.2927 2.90828 37.9327 2.10283 37.2919 1.50896C36.6512 0.915097 35.7821 0.581467 34.876 0.581467ZM4.12599 6.9148H0.709326V32.2481C0.709326 33.088 1.0693 33.8934 1.71004 34.4873C2.35079 35.0812 3.21984 35.4148 4.12599 35.4148H31.4593V32.2481H4.12599V6.9148Z" fill="#D44807"/>
</svg>
