<svg width="34" height="27" viewBox="0 0 34 27" fill="none" xmlns="http://www.w3.org/2000/svg">
<path d="M5.33344 7.24779V3.66446C5.33344 1.83112 6.83344 0.331123 8.66677 0.331123H25.3334C27.1668 0.331123 28.6668 1.83112 28.6668 3.66446V7.26446C26.7334 7.94779 25.3334 9.78112 25.3334 11.9478V15.3311H8.66677V11.9311C8.66677 9.78112 7.26677 7.93112 5.33344 7.24779ZM30.3334 8.66446C28.5001 8.66446 27.0001 10.1645 27.0001 11.9978V16.9978H7.00011V11.9978C7.00011 10.1645 5.51677 8.66446 3.66677 8.66446C1.81677 8.66446 0.333439 10.1645 0.333439 11.9978V20.3311C0.333439 22.1645 1.83344 23.6645 3.66677 23.6645V26.9978H7.00011V23.6645H27.0001V26.9978H30.3334V23.6645C32.1668 23.6645 33.6668 22.1645 33.6668 20.3311V11.9978C33.6668 10.1645 32.1668 8.66446 30.3334 8.66446Z" fill="#D44807"/>
</svg>
