<svg width="19" height="25" viewBox="0 0 19 25" fill="none" xmlns="http://www.w3.org/2000/svg">
<path d="M18.4625 9.13779L17.2125 11.3003L2.05 2.55029L3.3 0.387787L7.1 2.57529L8.8 2.11279L14.2125 5.23779L14.675 6.95029L18.4625 9.13779ZM0.5 21.7503V6.75029H6.8375L15.5 11.7503V21.7503C15.5 22.4133 15.2366 23.0492 14.7678 23.5181C14.2989 23.9869 13.663 24.2503 13 24.2503H3C2.33696 24.2503 1.70107 23.9869 1.23223 23.5181C0.763392 23.0492 0.5 22.4133 0.5 21.7503ZM3 21.7503H13V13.2503L6.075 9.25029H3V21.7503Z" fill="#D44807"/>
</svg>
