<svg width="34" height="34" viewBox="0 0 34 34" fill="none" xmlns="http://www.w3.org/2000/svg">
<path d="M16.9999 0.333943C14.8112 0.333943 12.6439 0.76504 10.6218 1.60262C8.59971 2.4402 6.76239 3.66785 5.21474 5.2155C2.08914 8.3411 0.333191 12.5803 0.333191 17.0006C0.333191 21.4209 2.08914 25.6601 5.21474 28.7857C6.76239 30.3334 8.59971 31.561 10.6218 32.3986C12.6439 33.2362 14.8112 33.6673 16.9999 33.6673C21.4201 33.6673 25.6594 31.9113 28.785 28.7857C31.9106 25.6601 33.6665 21.4209 33.6665 17.0006C33.6665 14.8119 33.2354 12.6446 32.3979 10.6226C31.5603 8.60046 30.3326 6.76314 28.785 5.2155C27.2373 3.66785 25.4 2.4402 23.3779 1.60262C21.3558 0.76504 19.1886 0.333943 16.9999 0.333943ZM8.78319 27.4673C9.49986 25.9673 13.8665 24.5006 16.9999 24.5006C20.1332 24.5006 24.4999 25.9673 25.2165 27.4673C22.9499 29.2673 20.0999 30.3339 16.9999 30.3339C13.8999 30.3339 11.0499 29.2673 8.78319 27.4673ZM27.5999 25.0506C25.2165 22.1506 19.4332 21.1673 16.9999 21.1673C14.5665 21.1673 8.78319 22.1506 6.39986 25.0506C4.69986 22.8339 3.66652 20.0339 3.66652 17.0006C3.66652 9.65061 9.64986 3.66728 16.9999 3.66728C24.3499 3.66728 30.3332 9.65061 30.3332 17.0006C30.3332 20.0339 29.2999 22.8339 27.5999 25.0506ZM16.9999 7.00061C13.7665 7.00061 11.1665 9.60061 11.1665 12.8339C11.1665 16.0673 13.7665 18.6673 16.9999 18.6673C20.2332 18.6673 22.8332 16.0673 22.8332 12.8339C22.8332 9.60061 20.2332 7.00061 16.9999 7.00061ZM16.9999 15.3339C16.3368 15.3339 15.7009 15.0706 15.2321 14.6017C14.7632 14.1329 14.4999 13.497 14.4999 12.8339C14.4999 12.1709 14.7632 11.535 15.2321 11.0662C15.7009 10.5973 16.3368 10.3339 16.9999 10.3339C17.6629 10.3339 18.2988 10.5973 18.7676 11.0662C19.2365 11.535 19.4999 12.1709 19.4999 12.8339C19.4999 13.497 19.2365 14.1329 18.7676 14.6017C18.2988 15.0706 17.6629 15.3339 16.9999 15.3339Z" fill="#D44807"/>
</svg>
